<?xml version="1.0" encoding="UTF-8"?>
<svg version="1.1" xmlns="http://www.w3.org/2000/svg" width="210" height="201">
<path d="M0 0 C69.3 0 138.6 0 210 0 C210 66.33 210 132.66 210 201 C140.7 201 71.4 201 0 201 C0 134.67 0 68.34 0 0 Z " fill="#252B34" transform="translate(0,0)"/>
<path d="M0 0 C2.31 0 4.62 0 7 0 C7 1.65 7 3.3 7 5 C8.98 5 10.96 5 13 5 C13 6.98 13 8.96 13 11 C11.02 11 9.04 11 7 11 C7 13.31 7 15.62 7 18 C23.17 18 39.34 18 56 18 C56 21.96 56 25.92 56 30 C60.29 30 64.58 30 69 30 C69 44.52 69 59.04 69 74 C62.73 74 56.46 74 50 74 C50 84.23 50 94.46 50 105 C54.29 105 58.58 105 63 105 C63 117.21 63 129.42 63 142 C60.69 142 58.38 142 56 142 C56 140.02 56 138.04 56 136 C54.02 136 52.04 136 50 136 C50 129.73 50 123.46 50 117 C46.04 117 42.08 117 38 117 C38 123.27 38 129.54 38 136 C35.69 136 33.38 136 31 136 C31 137.98 31 139.96 31 142 C29.02 142 27.04 142 25 142 C25 129.79 25 117.58 25 105 C29.29 105 33.58 105 38 105 C38 94.77 38 84.54 38 74 C31.73 74 25.46 74 19 74 C19 75.98 19 77.96 19 80 C17.02 80 15.04 80 13 80 C13 88.25 13 96.5 13 105 C6.73 105 0.46 105 -6 105 C-6 108.96 -6 112.92 -6 117 C-7.98 117 -9.96 117 -12 117 C-12 118.98 -12 120.96 -12 123 C-20.25 123 -28.5 123 -37 123 C-37 121.02 -37 119.04 -37 117 C-38.98 117 -40.96 117 -43 117 C-43 113.04 -43 109.08 -43 105 C-49.27 105 -55.54 105 -62 105 C-62 96.75 -62 88.5 -62 80 C-63.98 80 -65.96 80 -68 80 C-68 78.02 -68 76.04 -68 74 C-74.27 74 -80.54 74 -87 74 C-87 84.23 -87 94.46 -87 105 C-82.71 105 -78.42 105 -74 105 C-74 117.21 -74 129.42 -74 142 C-75.98 142 -77.96 142 -80 142 C-80 140.02 -80 138.04 -80 136 C-82.31 136 -84.62 136 -87 136 C-87 129.73 -87 123.46 -87 117 C-90.96 117 -94.92 117 -99 117 C-99 123.27 -99 129.54 -99 136 C-100.98 136 -102.96 136 -105 136 C-105 137.98 -105 139.96 -105 142 C-107.31 142 -109.62 142 -112 142 C-112 129.79 -112 117.58 -112 105 C-107.71 105 -103.42 105 -99 105 C-99 94.77 -99 84.54 -99 74 C-105.27 74 -111.54 74 -118 74 C-118 59.48 -118 44.96 -118 30 C-113.71 30 -109.42 30 -105 30 C-105 26.04 -105 22.08 -105 18 C-70.35 18 -35.7 18 0 18 C0 15.69 0 13.38 0 11 C-1.98 11 -3.96 11 -6 11 C-6 9.02 -6 7.04 -6 5 C-4.02 5 -2.04 5 0 5 C0 3.35 0 1.7 0 0 Z " fill="#303040" transform="translate(131,0)"/>
<path d="M0 0 C4.29 0 8.58 0 13 0 C13 3.96 13 7.92 13 12 C10.69 12 8.38 12 6 12 C6 22.23 6 32.46 6 43 C8.31 43 10.62 43 13 43 C13 47.29 13 51.58 13 56 C29.17 56 45.34 56 62 56 C62 51.71 62 47.42 62 43 C64.31 43 66.62 43 69 43 C69 32.77 69 22.54 69 12 C66.69 12 64.38 12 62 12 C62 8.04 62 4.08 62 0 C66.29 0 70.58 0 75 0 C75 16.5 75 33 75 50 C73.02 50 71.04 50 69 50 C69 58.25 69 66.5 69 75 C47.9714391 75.12508728 27.01329805 74.81266899 6 74 C6 66.08 6 58.16 6 50 C4.02 50 2.04 50 0 50 C0 33.5 0 17 0 0 Z " fill="#5B78E1" transform="translate(69,24)"/>
<path d="M0 0 C12.21 0 24.42 0 37 0 C37 18.48 37 36.96 37 56 C24.79 56 12.58 56 0 56 C0 37.52 0 19.04 0 0 Z " fill="#1E2523" transform="translate(88,142)"/>
<path d="M0 0 C12.21 0 24.42 0 37 0 C37 1.98 37 3.96 37 6 C39.31 6 41.62 6 44 6 C44 18.21 44 30.42 44 43 C29.48 43 14.96 43 0 43 C0 28.81 0 14.62 0 0 Z " fill="#5B6FE1" transform="translate(150,24)"/>
<path d="M0 0 C12.21 0 24.42 0 37 0 C37 14.19 37 28.38 37 43 C22.48 43 7.96 43 -7 43 C-7 30.79 -7 18.58 -7 6 C-4.69 6 -2.38 6 0 6 C0 4.02 0 2.04 0 0 Z " fill="#5B70E1" transform="translate(26,24)"/>
<path d="M0 0 C12.21 0 24.42 0 37 0 C37 4.29 37 8.58 37 13 C38.98 13 40.96 13 43 13 C43 18.94 43 24.88 43 31 C41.02 31 39.04 31 37 31 C37 35.29 37 39.58 37 44 C24.79 44 12.58 44 0 44 C0 39.71 0 35.42 0 31 C-1.98 31 -3.96 31 -6 31 C-6 25.06 -6 19.12 -6 13 C-4.02 13 -2.04 13 0 13 C0 8.71 0 4.42 0 0 Z " fill="#ADC6FA" transform="translate(88,30)"/>
<path d="M0 0 C16.17 0 32.34 0 49 0 C49 3.96 49 7.92 49 12 C51.31 12 53.62 12 56 12 C56 22.23 56 32.46 56 43 C53.69 43 51.38 43 49 43 C49 47.29 49 51.58 49 56 C32.83 56 16.66 56 0 56 C0 51.71 0 47.42 0 43 C-2.31 43 -4.62 43 -7 43 C-7 32.77 -7 22.54 -7 12 C-4.69 12 -2.38 12 0 12 C0 8.04 0 4.08 0 0 Z M6 6 C6 10.29 6 14.58 6 19 C4.02 19 2.04 19 0 19 C0 24.94 0 30.88 0 37 C1.98 37 3.96 37 6 37 C6 41.29 6 45.58 6 50 C18.21 50 30.42 50 43 50 C43 45.71 43 41.42 43 37 C44.98 37 46.96 37 49 37 C49 31.06 49 25.12 49 19 C47.02 19 45.04 19 43 19 C43 14.71 43 10.42 43 6 C30.79 6 18.58 6 6 6 Z " fill="#30301E" transform="translate(82,24)"/>
<path d="M0 0 C12.54 0 25.08 0 38 0 C38 12.21 38 24.42 38 37 C35.69 37 33.38 37 31 37 C31 35.02 31 33.04 31 31 C29.02 31 27.04 31 25 31 C25 24.73 25 18.46 25 12 C21.04 12 17.08 12 13 12 C13 18.27 13 24.54 13 31 C10.69 31 8.38 31 6 31 C6 32.98 6 34.96 6 37 C4.02 37 2.04 37 0 37 C0 24.79 0 12.58 0 0 Z " fill="#303040" transform="translate(156,105)"/>
<path d="M0 0 C12.54 0 25.08 0 38 0 C38 12.21 38 24.42 38 37 C36.02 37 34.04 37 32 37 C32 35.02 32 33.04 32 31 C29.69 31 27.38 31 25 31 C25 24.73 25 18.46 25 12 C21.04 12 17.08 12 13 12 C13 18.27 13 24.54 13 31 C11.02 31 9.04 31 7 31 C7 32.98 7 34.96 7 37 C4.69 37 2.38 37 0 37 C0 24.79 0 12.58 0 0 Z " fill="#303040" transform="translate(19,105)"/>
<path d="M0 0 C4.29 0 8.58 0 13 0 C13 3.96 13 7.92 13 12 C10.69 12 8.38 12 6 12 C6 22.23 6 32.46 6 43 C8.31 43 10.62 43 13 43 C13 47.29 13 51.58 13 56 C16.96 56 20.92 56 25 56 C25 57.98 25 59.96 25 62 C26.98 62 28.96 62 31 62 C31 63.98 31 65.96 31 68 C32.98 68 34.96 68 37 68 C37 69.98 37 71.96 37 74 C26.77 74 16.54 74 6 74 C6 66.08 6 58.16 6 50 C4.02 50 2.04 50 0 50 C0 33.5 0 17 0 0 Z " fill="#5B56E1" transform="translate(69,24)"/>
<path d="M0 0 C4.29 0 8.58 0 13 0 C13 10.23 13 20.46 13 31 C0.46 31 -12.08 31 -25 31 C-25 23.08 -25 15.16 -25 7 C-22.69 7 -20.38 7 -18 7 C-18 10.96 -18 14.92 -18 19 C-16.02 19 -14.04 19 -12 19 C-12 17.02 -12 15.04 -12 13 C-10.02 13 -8.04 13 -6 13 C-6 11.02 -6 9.04 -6 7 C-4.02 7 -2.04 7 0 7 C0 4.69 0 2.38 0 0 Z " fill="#5B70E1" transform="translate(44,36)"/>
<path d="M0 0 C4.29 0 8.58 0 13 0 C13 1.98 13 3.96 13 6 C18.94 6 24.88 6 31 6 C31 18.21 31 30.42 31 43 C29.02 43 27.04 43 25 43 C25 32.77 25 22.54 25 12 C12.79 12 0.58 12 -12 12 C-12 22.23 -12 32.46 -12 43 C-13.98 43 -15.96 43 -18 43 C-18 30.79 -18 18.58 -18 6 C-12.06 6 -6.12 6 0 6 C0 4.02 0 2.04 0 0 Z " fill="#303040" transform="translate(100,130)"/>
<path d="M0 0 C1.98 0 3.96 0 6 0 C6 2.31 6 4.62 6 7 C7.98 7 9.96 7 12 7 C12 4.69 12 2.38 12 0 C16.29 0 20.58 0 25 0 C25 8.25 25 16.5 25 25 C23.02 25 21.04 25 19 25 C19 29.29 19 33.58 19 38 C14.71 38 10.42 38 6 38 C6 31.73 6 25.46 6 19 C4.02 19 2.04 19 0 19 C0 12.73 0 6.46 0 0 Z " fill="#28302E" transform="translate(94,154)"/>
<path d="M0 0 C1.98 0 3.96 0 6 0 C6 1.98 6 3.96 6 6 C7.98 6 9.96 6 12 6 C12 10.29 12 14.58 12 19 C14.31 19 16.62 19 19 19 C19 20.98 19 22.96 19 25 C16.69 25 14.38 25 12 25 C12 26.98 12 28.96 12 31 C14.31 31 16.62 31 19 31 C19 32.98 19 34.96 19 37 C16.69 37 14.38 37 12 37 C12 38.98 12 40.96 12 43 C8.04 43 4.08 43 0 43 C0 28.81 0 14.62 0 0 Z " fill="#5B6EE1" transform="translate(150,24)"/>
<path d="M0 0 C6.27 0 12.54 0 19 0 C19 4.29 19 8.58 19 13 C20.98 13 22.96 13 25 13 C25 16.96 25 20.92 25 25 C19.06 25 13.12 25 7 25 C7 23.02 7 21.04 7 19 C4.69 19 2.38 19 0 19 C0 12.73 0 6.46 0 0 Z " fill="#B9CFFA" transform="translate(106,30)"/>
<path d="M0 0 C1.98 0 3.96 0 6 0 C6 1.98 6 3.96 6 6 C8.31 6 10.62 6 13 6 C13 18.21 13 30.42 13 43 C8.71 43 4.42 43 0 43 C0 39.04 0 35.08 0 31 C1.98 31 3.96 31 6 31 C6 24.73 6 18.46 6 12 C4.02 12 2.04 12 0 12 C0 8.04 0 4.08 0 0 Z " fill="#5B7BE1" transform="translate(181,24)"/>
<path d="M0 0 C3.96 0 7.92 0 12 0 C12 10.23 12 20.46 12 31 C8.04 31 4.08 31 0 31 C0 20.77 0 10.54 0 0 Z " fill="#2E3734" transform="translate(169,74)"/>
<path d="M0 0 C3.96 0 7.92 0 12 0 C12 10.23 12 20.46 12 31 C8.04 31 4.08 31 0 31 C0 20.77 0 10.54 0 0 Z " fill="#2F3936" transform="translate(32,74)"/>
<path d="M0 0 C3.96 0 7.92 0 12 0 C12 1.98 12 3.96 12 6 C13.98 6 15.96 6 18 6 C18 7.98 18 9.96 18 12 C19.98 12 21.96 12 24 12 C24 13.98 24 15.96 24 18 C16.08 18 8.16 18 0 18 C0 12.06 0 6.12 0 0 Z " fill="#5B69E1" transform="translate(82,80)"/>
<path d="M0 0 C3.96 0 7.92 0 12 0 C12 1.98 12 3.96 12 6 C14.31 6 16.62 6 19 6 C19 7.98 19 9.96 19 12 C20.98 12 22.96 12 25 12 C25 14.31 25 16.62 25 19 C20.71 19 16.42 19 12 19 C12 16.69 12 14.38 12 12 C10.02 12 8.04 12 6 12 C6 10.02 6 8.04 6 6 C4.02 6 2.04 6 0 6 C0 4.02 0 2.04 0 0 Z " fill="#5B6EE1" transform="translate(94,80)"/>
<path d="M0 0 C8.25 0 16.5 0 25 0 C25 3.96 25 7.92 25 12 C23.02 12 21.04 12 19 12 C19 10.02 19 8.04 19 6 C15.04 6 11.08 6 7 6 C7 7.98 7 9.96 7 12 C4.69 12 2.38 12 0 12 C0 8.04 0 4.08 0 0 Z " fill="#5B56E1" transform="translate(162,111)"/>
<path d="M0 0 C8.25 0 16.5 0 25 0 C25 3.96 25 7.92 25 12 C22.69 12 20.38 12 18 12 C18 10.02 18 8.04 18 6 C14.04 6 10.08 6 6 6 C6 7.98 6 9.96 6 12 C4.02 12 2.04 12 0 12 C0 8.04 0 4.08 0 0 Z " fill="#5B7AE1" transform="translate(26,111)"/>
<path d="M0 0 C12.21 0 24.42 0 37 0 C37 1.98 37 3.96 37 6 C24.79 6 12.58 6 0 6 C0 4.02 0 2.04 0 0 Z " fill="#252B34" transform="translate(88,142)"/>
<path d="M0 0 C2.31 0 4.62 0 7 0 C7 10.23 7 20.46 7 31 C4.69 31 2.38 31 0 31 C0 20.77 0 10.54 0 0 Z " fill="#1E2422" transform="translate(162,74)"/>
<path d="M0 0 C2.31 0 4.62 0 7 0 C7 10.23 7 20.46 7 31 C4.69 31 2.38 31 0 31 C0 20.77 0 10.54 0 0 Z " fill="#1E2422" transform="translate(44,74)"/>
<path d="M0 0 C2.31 0 4.62 0 7 0 C7 5.94 7 11.88 7 18 C8.98 18 10.96 18 13 18 C13 19.98 13 21.96 13 24 C8.71 24 4.42 24 0 24 C0 16.08 0 8.16 0 0 Z " fill="#5B56E1" transform="translate(19,43)"/>
<path d="M0 0 C2.31 0 4.62 0 7 0 C7 1.65 7 3.3 7 5 C8.98 5 10.96 5 13 5 C13 6.98 13 8.96 13 11 C11.02 11 9.04 11 7 11 C7 13.31 7 15.62 7 18 C4.69 18 2.38 18 0 18 C0 15.69 0 13.38 0 11 C-1.98 11 -3.96 11 -6 11 C-6 9.02 -6 7.04 -6 5 C-4.02 5 -2.04 5 0 5 C0 3.35 0 1.7 0 0 Z " fill="#777479" transform="translate(131,0)"/>
<path d="M0 0 C8.25 0 16.5 0 25 0 C25 1.98 25 3.96 25 6 C21.04 6 17.08 6 13 6 C13 7.98 13 9.96 13 12 C11.02 12 9.04 12 7 12 C7 10.02 7 8.04 7 6 C4.69 6 2.38 6 0 6 C0 4.02 0 2.04 0 0 Z " fill="#5B68E1" transform="translate(106,80)"/>
<path d="M0 0 C1.98 0 3.96 0 6 0 C6 10.23 6 20.46 6 31 C4.02 31 2.04 31 0 31 C0 20.77 0 10.54 0 0 Z " fill="#1E2422" transform="translate(181,74)"/>
<path d="M0 0 C1.98 0 3.96 0 6 0 C6 10.23 6 20.46 6 31 C4.02 31 2.04 31 0 31 C0 20.77 0 10.54 0 0 Z " fill="#1E2422" transform="translate(26,74)"/>
<path d="M0 0 C1.98 0 3.96 0 6 0 C6 1.98 6 3.96 6 6 C8.31 6 10.62 6 13 6 C13 10.29 13 14.58 13 19 C10.69 19 8.38 19 6 19 C6 16.69 6 14.38 6 12 C4.02 12 2.04 12 0 12 C0 8.04 0 4.08 0 0 Z " fill="#7F8CB8" transform="translate(181,24)"/>
<path d="M0 0 C1.98 0 3.96 0 6 0 C6 3.96 6 7.92 6 12 C4.02 12 2.04 12 0 12 C0 14.31 0 16.62 0 19 C-2.31 19 -4.62 19 -7 19 C-7 14.71 -7 10.42 -7 6 C-4.69 6 -2.38 6 0 6 C0 4.02 0 2.04 0 0 Z " fill="#7986AD" transform="translate(26,24)"/>
<path d="M0 0 C8.25 0 16.5 0 25 0 C25 1.98 25 3.96 25 6 C16.75 6 8.5 6 0 6 C0 4.02 0 2.04 0 0 Z " fill="#5B74E1" transform="translate(94,105)"/>
<path d="M0 0 C8.25 0 16.5 0 25 0 C25 1.98 25 3.96 25 6 C16.75 6 8.5 6 0 6 C0 4.02 0 2.04 0 0 Z " fill="#6E8AC2" transform="translate(94,55)"/>
<path d="M0 0 C1.98 0 3.96 0 6 0 C6 1.98 6 3.96 6 6 C7.98 6 9.96 6 12 6 C12 10.29 12 14.58 12 19 C10.02 19 8.04 19 6 19 C6 16.69 6 14.38 6 12 C4.02 12 2.04 12 0 12 C0 8.04 0 4.08 0 0 Z " fill="#5B67E1" transform="translate(150,24)"/>
<path d="M0 0 C1.98 0 3.96 0 6 0 C6 8.25 6 16.5 6 25 C4.02 25 2.04 25 0 25 C0 16.75 0 8.5 0 0 Z " fill="#5B56E1" transform="translate(150,36)"/>
<path d="M0 0 C2.31 0 4.62 0 7 0 C7 5.94 7 11.88 7 18 C4.69 18 2.38 18 0 18 C0 12.06 0 6.12 0 0 Z " fill="#222927" transform="translate(106,161)"/>
<path d="M0 0 C4.29 0 8.58 0 13 0 C13 1.98 13 3.96 13 6 C11.02 6 9.04 6 7 6 C7 7.98 7 9.96 7 12 C4.69 12 2.38 12 0 12 C0 8.04 0 4.08 0 0 Z " fill="#5B7AE1" transform="translate(131,24)"/>
<path d="M0 0 C1.98 0 3.96 0 6 0 C6 6.27 6 12.54 6 19 C4.02 19 2.04 19 0 19 C0 12.73 0 6.46 0 0 Z " fill="#5B69E1" transform="translate(181,36)"/>
<path d="M0 0 C4.29 0 8.58 0 13 0 C13 2.31 13 4.62 13 7 C8.71 7 4.42 7 0 7 C0 4.69 0 2.38 0 0 Z " fill="#1E2422" transform="translate(100,123)"/>
<path d="M0 0 C2.31 0 4.62 0 7 0 C7 3.96 7 7.92 7 12 C4.69 12 2.38 12 0 12 C0 8.04 0 4.08 0 0 Z " fill="#7986AD" transform="translate(75,86)"/>
<path d="M0 0 C4.29 0 8.58 0 13 0 C13 1.98 13 3.96 13 6 C8.71 6 4.42 6 0 6 C0 4.02 0 2.04 0 0 Z " fill="#5B74E1" transform="translate(100,117)"/>
<path d="M0 0 C1.98 0 3.96 0 6 0 C6 4.29 6 8.58 6 13 C4.02 13 2.04 13 0 13 C0 8.71 0 4.42 0 0 Z " fill="#7F8CB8" transform="translate(138,30)"/>
<path d="M0 0 C1.98 0 3.96 0 6 0 C6 4.29 6 8.58 6 13 C4.02 13 2.04 13 0 13 C0 8.71 0 4.42 0 0 Z " fill="#6E8AC2" transform="translate(113,36)"/>
<path d="M0 0 C1.98 0 3.96 0 6 0 C6 4.29 6 8.58 6 13 C4.02 13 2.04 13 0 13 C0 8.71 0 4.42 0 0 Z " fill="#6E8AC2" transform="translate(94,36)"/>
<path d="M0 0 C4.29 0 8.58 0 13 0 C13 1.98 13 3.96 13 6 C8.71 6 4.42 6 0 6 C0 4.02 0 2.04 0 0 Z " fill="#5B56E1" transform="translate(69,24)"/>
<path d="M0 0 C1.98 0 3.96 0 6 0 C6 3.96 6 7.92 6 12 C4.02 12 2.04 12 0 12 C0 8.04 0 4.08 0 0 Z " fill="#5B7AE1" transform="translate(181,111)"/>
<path d="M0 0 C3.96 0 7.92 0 12 0 C12 1.98 12 3.96 12 6 C8.04 6 4.08 6 0 6 C0 4.02 0 2.04 0 0 Z " fill="#3F3F74" transform="translate(169,117)"/>
<path d="M0 0 C3.96 0 7.92 0 12 0 C12 1.98 12 3.96 12 6 C8.04 6 4.08 6 0 6 C0 4.02 0 2.04 0 0 Z " fill="#3F3F74" transform="translate(32,117)"/>
<path d="M0 0 C1.98 0 3.96 0 6 0 C6 3.96 6 7.92 6 12 C4.02 12 2.04 12 0 12 C0 8.04 0 4.08 0 0 Z " fill="#5B56E1" transform="translate(26,111)"/>
<path d="M0 0 C3.96 0 7.92 0 12 0 C12 1.98 12 3.96 12 6 C8.04 6 4.08 6 0 6 C0 4.02 0 2.04 0 0 Z " fill="#323C39" transform="translate(169,99)"/>
<path d="M0 0 C3.96 0 7.92 0 12 0 C12 1.98 12 3.96 12 6 C8.04 6 4.08 6 0 6 C0 4.02 0 2.04 0 0 Z " fill="#7F8CB8" transform="translate(119,86)"/>
<path d="M0 0 C3.96 0 7.92 0 12 0 C12 1.98 12 3.96 12 6 C8.04 6 4.08 6 0 6 C0 4.02 0 2.04 0 0 Z " fill="#7F8CB8" transform="translate(94,80)"/>
<path d="M0 0 C3.96 0 7.92 0 12 0 C12 1.98 12 3.96 12 6 C8.04 6 4.08 6 0 6 C0 4.02 0 2.04 0 0 Z " fill="#323C39" transform="translate(169,74)"/>
<path d="M0 0 C3.96 0 7.92 0 12 0 C12 1.98 12 3.96 12 6 C8.04 6 4.08 6 0 6 C0 4.02 0 2.04 0 0 Z " fill="#323C39" transform="translate(32,74)"/>
<path d="M0 0 C3.96 0 7.92 0 12 0 C12 1.98 12 3.96 12 6 C8.04 6 4.08 6 0 6 C0 4.02 0 2.04 0 0 Z " fill="#7F8CB8" transform="translate(150,61)"/>
<path d="M0 0 C1.98 0 3.96 0 6 0 C6 3.96 6 7.92 6 12 C4.02 12 2.04 12 0 12 C0 8.04 0 4.08 0 0 Z " fill="#7F8CB8" transform="translate(57,55)"/>
<path d="M0 0 C1.98 0 3.96 0 6 0 C6 3.96 6 7.92 6 12 C4.02 12 2.04 12 0 12 C0 8.04 0 4.08 0 0 Z " fill="#5B84E1" transform="translate(181,24)"/>
<path d="M0 0 C1.98 0 3.96 0 6 0 C6 3.96 6 7.92 6 12 C4.02 12 2.04 12 0 12 C0 8.04 0 4.08 0 0 Z " fill="#5B84E1" transform="translate(26,24)"/>
<path d="M0 0 C1.98 0 3.96 0 6 0 C6 3.96 6 7.92 6 12 C4.02 12 2.04 12 0 12 C0 8.04 0 4.08 0 0 Z " fill="#7986AD" transform="translate(150,24)"/>
<path d="M0 0 C2.31 0 4.62 0 7 0 C7 2.31 7 4.62 7 7 C4.69 7 2.38 7 0 7 C0 4.69 0 2.38 0 0 Z " fill="#5B84E1" transform="translate(44,36)"/>
<path d="M0 0 C2.31 0 4.62 0 7 0 C7 2.31 7 4.62 7 7 C4.69 7 2.38 7 0 7 C0 4.69 0 2.38 0 0 Z " fill="#5E5E5E" transform="translate(131,11)"/>
<path d="M0 0 C2.31 0 4.62 0 7 0 C7 1.98 7 3.96 7 6 C4.69 6 2.38 6 0 6 C0 4.02 0 2.04 0 0 Z " fill="#404D49" transform="translate(106,130)"/>
<path d="M0 0 C1.98 0 3.96 0 6 0 C6 2.31 6 4.62 6 7 C4.02 7 2.04 7 0 7 C0 4.69 0 2.38 0 0 Z " fill="#7986AD" transform="translate(113,92)"/>
<path d="M0 0 C2.31 0 4.62 0 7 0 C7 1.98 7 3.96 7 6 C4.69 6 2.38 6 0 6 C0 4.02 0 2.04 0 0 Z " fill="#7F8CB8" transform="translate(75,86)"/>
<path d="M0 0 C1.98 0 3.96 0 6 0 C6 2.31 6 4.62 6 7 C4.02 7 2.04 7 0 7 C0 4.69 0 2.38 0 0 Z " fill="#5B84E1" transform="translate(32,36)"/>
<path d="M0 0 C2.31 0 4.62 0 7 0 C7 1.98 7 3.96 7 6 C4.69 6 2.38 6 0 6 C0 4.02 0 2.04 0 0 Z " fill="#5B67E1" transform="translate(131,30)"/>
<path d="M0 0 C2.31 0 4.62 0 7 0 C7 1.98 7 3.96 7 6 C4.69 6 2.38 6 0 6 C0 4.02 0 2.04 0 0 Z " fill="#5B6EE1" transform="translate(75,30)"/>
<path d="M0 0 C2.31 0 4.62 0 7 0 C7 1.98 7 3.96 7 6 C4.69 6 2.38 6 0 6 C0 4.02 0 2.04 0 0 Z " fill="#303040" transform="translate(187,24)"/>
<path d="M0 0 C2.31 0 4.62 0 7 0 C7 1.98 7 3.96 7 6 C4.69 6 2.38 6 0 6 C0 4.02 0 2.04 0 0 Z " fill="#303040" transform="translate(19,24)"/>
<path d="M0 0 C1.98 0 3.96 0 6 0 C6 1.98 6 3.96 6 6 C4.02 6 2.04 6 0 6 C0 4.02 0 2.04 0 0 Z " fill="#1E2422" transform="translate(113,130)"/>
<path d="M0 0 C1.98 0 3.96 0 6 0 C6 1.98 6 3.96 6 6 C4.02 6 2.04 6 0 6 C0 4.02 0 2.04 0 0 Z " fill="#323C39" transform="translate(100,130)"/>
<path d="M0 0 C1.98 0 3.96 0 6 0 C6 1.98 6 3.96 6 6 C4.02 6 2.04 6 0 6 C0 4.02 0 2.04 0 0 Z " fill="#1E2422" transform="translate(94,130)"/>
<path d="M0 0 C1.98 0 3.96 0 6 0 C6 1.98 6 3.96 6 6 C4.02 6 2.04 6 0 6 C0 4.02 0 2.04 0 0 Z " fill="#7F8CB8" transform="translate(181,111)"/>
<path d="M0 0 C1.98 0 3.96 0 6 0 C6 1.98 6 3.96 6 6 C4.02 6 2.04 6 0 6 C0 4.02 0 2.04 0 0 Z " fill="#5B7AE1" transform="translate(175,111)"/>
<path d="M0 0 C1.98 0 3.96 0 6 0 C6 1.98 6 3.96 6 6 C4.02 6 2.04 6 0 6 C0 4.02 0 2.04 0 0 Z " fill="#7986AD" transform="translate(32,111)"/>
<path d="M0 0 C1.98 0 3.96 0 6 0 C6 1.98 6 3.96 6 6 C4.02 6 2.04 6 0 6 C0 4.02 0 2.04 0 0 Z " fill="#5B56E1" transform="translate(82,92)"/>
<path d="M0 0 C1.98 0 3.96 0 6 0 C6 1.98 6 3.96 6 6 C4.02 6 2.04 6 0 6 C0 4.02 0 2.04 0 0 Z " fill="#7986AD" transform="translate(119,86)"/>
<path d="M0 0 C1.98 0 3.96 0 6 0 C6 1.98 6 3.96 6 6 C4.02 6 2.04 6 0 6 C0 4.02 0 2.04 0 0 Z " fill="#7986AD" transform="translate(94,80)"/>
<path d="M0 0 C1.98 0 3.96 0 6 0 C6 1.98 6 3.96 6 6 C4.02 6 2.04 6 0 6 C0 4.02 0 2.04 0 0 Z " fill="#7986AD" transform="translate(150,61)"/>
<path d="M0 0 C1.98 0 3.96 0 6 0 C6 1.98 6 3.96 6 6 C4.02 6 2.04 6 0 6 C0 4.02 0 2.04 0 0 Z " fill="#5B84E1" transform="translate(156,55)"/>
<path d="M0 0 C1.98 0 3.96 0 6 0 C6 1.98 6 3.96 6 6 C4.02 6 2.04 6 0 6 C0 4.02 0 2.04 0 0 Z " fill="#7986AD" transform="translate(57,55)"/>
<path d="M0 0 C1.98 0 3.96 0 6 0 C6 1.98 6 3.96 6 6 C4.02 6 2.04 6 0 6 C0 4.02 0 2.04 0 0 Z " fill="#5B84E1" transform="translate(26,55)"/>
<path d="M0 0 C1.98 0 3.96 0 6 0 C6 1.98 6 3.96 6 6 C4.02 6 2.04 6 0 6 C0 4.02 0 2.04 0 0 Z " fill="#5B84E1" transform="translate(175,49)"/>
<path d="M0 0 C1.98 0 3.96 0 6 0 C6 1.98 6 3.96 6 6 C4.02 6 2.04 6 0 6 C0 4.02 0 2.04 0 0 Z " fill="#5B84E1" transform="translate(32,49)"/>
<path d="M0 0 C1.98 0 3.96 0 6 0 C6 1.98 6 3.96 6 6 C4.02 6 2.04 6 0 6 C0 4.02 0 2.04 0 0 Z " fill="#5B84E1" transform="translate(169,43)"/>
<path d="M0 0 C1.98 0 3.96 0 6 0 C6 1.98 6 3.96 6 6 C4.02 6 2.04 6 0 6 C0 4.02 0 2.04 0 0 Z " fill="#5B84E1" transform="translate(38,43)"/>
<path d="M0 0 C1.98 0 3.96 0 6 0 C6 1.98 6 3.96 6 6 C4.02 6 2.04 6 0 6 C0 4.02 0 2.04 0 0 Z " fill="#5B84E1" transform="translate(156,30)"/>
<path d="M0 0 C1.98 0 3.96 0 6 0 C6 1.98 6 3.96 6 6 C4.02 6 2.04 6 0 6 C0 4.02 0 2.04 0 0 Z " fill="#7986AD" transform="translate(138,30)"/>
<path d="M0 0 C1.98 0 3.96 0 6 0 C6 1.98 6 3.96 6 6 C4.02 6 2.04 6 0 6 C0 4.02 0 2.04 0 0 Z " fill="#7986AD" transform="translate(181,24)"/>
<path d="M0 0 C1.98 0 3.96 0 6 0 C6 1.98 6 3.96 6 6 C4.02 6 2.04 6 0 6 C0 4.02 0 2.04 0 0 Z " fill="#5B56E1" transform="translate(156,24)"/>
<path d="M0 0 C1.98 0 3.96 0 6 0 C6 1.98 6 3.96 6 6 C4.02 6 2.04 6 0 6 C0 4.02 0 2.04 0 0 Z " fill="#7986AD" transform="translate(69,24)"/>
<path d="M0 0 C1.98 0 3.96 0 6 0 C6 1.98 6 3.96 6 6 C4.02 6 2.04 6 0 6 C0 4.02 0 2.04 0 0 Z " fill="#5B56E1" transform="translate(32,24)"/>
<path d="M0 0 C1.98 0 3.96 0 6 0 C6 1.98 6 3.96 6 6 C4.02 6 2.04 6 0 6 C0 4.02 0 2.04 0 0 Z " fill="#7F8CB8" transform="translate(26,24)"/>
<path d="M0 0 C1.98 0 3.96 0 6 0 C6 1.98 6 3.96 6 6 C4.02 6 2.04 6 0 6 C0 4.02 0 2.04 0 0 Z " fill="#5E5E5E" transform="translate(125,5)"/>
<path d="M0 0 C2.31 0 4.62 0 7 0 C7 1.65 7 3.3 7 5 C4.69 5 2.38 5 0 5 C0 3.35 0 1.7 0 0 Z " fill="#696A6A" transform="translate(131,0)"/>
</svg>
